<mxfile host="app.diagrams.net" modified="2024-01-05T10:19:37.842Z" agent="Mozilla/5.0 (Windows NT 10.0; Win64; x64) AppleWebKit/537.36 (KHTML, like Gecko) Chrome/120.0.0.0 Safari/537.36" version="22.1.11" etag="mf_rkG-1H7r93xoAwl2g" type="github">
  <diagram name="Page-1" id="w4BGQZEWJ_FVOxVKYfRA">
    <mxGraphModel>
      <root>
        <mxCell id="0" />
        <mxCell id="1" parent="0" />
      </root>
    </mxGraphModel>
  </diagram>
</mxfile>
